# xmcd
#
# Track frame offsets:
#	150
#	8864
#	21917
#	31110
#	39892
#	51229
#	63998
#	77816
#	88395
#	100380
#	113087
#	123766
#	135562
#	148287
#	157774
#	167180
#	177557
#	188321
#	201199
#	214178
#	224310
#
# Disc length: 3137
#
# Revision: 1
# Processed by: cddbd v1.5.1PL0 Copyright (c) Steve Scherf et al.
# Submitted via: VisiTrax 2.9.5.181 - For more info visit www.synapsa.com
# Normalized: r0:DSETVAR1
#
DISCID=220c3f15
DTITLE=Various Artist - Caught In The Webb - A Tribute To The Legendary Webb Pierce
DYEAR=2001
DGENRE=Country
TTITLE0=Dale Watson and The Jordanaires - In The Jailhouse Now
TTITLE1=Mandy Barnett - Slowly
TTITLE2=Charley Pride - I'm Tired
TTITLE3=Rosie Flores and The Jordanaires - I Ain't Never
TTITLE4=George Jones - Yes I Know Why
TTITLE5=Dwight Yoakham - If You Were me
TTITLE6=Emmylou Harris - Wondering
TTITLE7=Robbie Fulks and Joy Lynn White - Tupelo County Jail
TTITLE8=Allison Moorer - Back Street Affair
TTITLE9=Matt King - Even Tho'
TTITLE10=Crystal Gayle - More And More
TTITLE11=The Del McCoury Band - I'm Walking The Dog
TTITLE12=Lionel Cartwright - That Heart Belongs To Me
TTITLE13=Guy Clark and The Jordanaires - Honky Tonk Song
TTITLE14=Gail Davies - Love Love Song
TTITLE15=Willie Nelson - That's Me Without You
TTITLE16=BR549 - There Stands The Glass
TTITLE17=Billy Walker and The Carol Lee Singers - I Don't Care
TTITLE18=Kevin Welch and Deborah Pierce - Why Baby Why
TTITLE19=Trent Summar - It's Been So Long
TTITLE20=Pam Tillis and The Jordanaires - No Love Have I
EXTD=
EXTT0=
EXTT1=
EXTT2=
EXTT3=
EXTT4=
EXTT5=
EXTT6=
EXTT7=
EXTT8=
EXTT9=
EXTT10=
EXTT11=
EXTT12=
EXTT13=
EXTT14=
EXTT15=
EXTT16=
EXTT17=
EXTT18=
EXTT19=
EXTT20=
PLAYORDER=
